{"title":"Tucker and Dale Vs Evil 2010 XviD AC3 WORKPRINT SAFCuk009 {Drago","uid":6167691,"size":1188182764,"categoryP":"video","categoryS":"movies","magnet":"?xt=urn:btih:cf523564d54114a65da882f60fe037f2836d8295&amp;dn=Tucker+and+Dale+Vs+Evil+2010+XviD+AC3+WORKPRINT+SAFCuk009+%7BDrago&amp;tr=udp%3A%2F%2Ftracker.openbittorrent.com%3A80&amp;tr=udp%3A%2F%2Fopen.demonii.com%3A1337&amp;tr=udp%3A%2F%2Ftracker.coppersurfer.tk%3A6969&amp;tr=udp%3A%2F%2Fexodus.desync.com%3A6969","seeders":1,"leechers":0,"uploader":"SAFCukO09","files":3,"time":1297444597,"description":"\nFormat : AVI\nFormat/Info : Audio Video Interleave\nFormat profile : OpenDML\nFile size : 1.11 GiB\nDuration : 1h 23mn\nOverall bit rate : 1 908 Kbps\nWriting application : Lavf52.47.0\n\nVideo\nID : 0\nFormat : xvid\nCodec ID : xvid\nDuration : 1h 23mn\nBit rate : 1 575 Kbps\nWidth : 720 pixels\nHeight : 480 pixels\nDisplay aspect ratio : 3:2\nFrame rate : 25.000 fps\nStandard : NTSC\nBits/(Pixel*Frame) : 0.182\nStream size : 935 MiB (83%)\n\nAudio\nID : 1\nFormat : AC-3\nFormat/Info : Audio Coding 3\nMode extension : CM (complete main)\nCodec ID : 2000\nDuration : 1h 23mn\nBit rate mode : Constant\nBit rate : 320 Kbps\nChannel(s) : 2 channels\nChannel positions : Front: L R\nSampling rate : 44.1 KHz\nBit depth : 16 bits\nStream size : 190 MiB (17%)\nAlignment : Aligned on interleaves\nInterleave, duration : 35 ms (0.87 video frame)\n &lt;a href=&quot;\nhttp://www.imdb.com/title/tt1465522/&quot; rel=&quot;nofollow&quot; target=&quot;_NEW&quot;&gt;\nhttp://www.imdb.com/title/tt1465522/&lt;/a&gt;\n\n\nUsers: 8.0/10 (1,885 votes) 10 reviews | Critics: 54 reviews\n\nStoryline\n\nTwo lovable West Virginian hillbillies, are headed to their &quot;fixer-upper&quot; vacation cabin to drink some beer, do some fishin', and have a good time. But when they run into a group of preppy college kids who assume from their looks that they must be in-bred, chainsaw wielding killers, Tucker &amp; Dale's vacation takes a bloody &amp; hilarious turn for the worse. Written by Tucker\n\nDirector:\nEli Craig\nWriters:\nMorgan Jurgenson, Eli Craig\nStars:\nTyler Labine, Alan Tudyk and Katrina Bowden\n\n\n\nVideo Source and Audio Source Tucker.And.Dale.Vs.Evil.2010.WORKPRINT-NoGrp 'MadVillain' ( Thanks )\n\n\nNot a great deal of work done just a quick convert with AC3 audio and a couple of filters .........Enjoy !\n\n\nGreetz to Imagine ,Flawl3ss ,Santi ,Vision ,Kingdom,BDK,DiGiTALiNK,LEGION,Classified,iLLUSiON ,THC,WBZ,Rx,iLLUSiON and to all who share","torrent":{"xt":"urn:btih:cf523564d54114a65da882f60fe037f2836d8295","amp;dn":"Tucker+and+Dale+Vs+Evil+2010+XviD+AC3+WORKPRINT+SAFCuk009+%7BDrago","amp;tr":["udp%3A%2F%2Ftracker.openbittorrent.com%3A80","udp%3A%2F%2Fopen.demonii.com%3A1337","udp%3A%2F%2Ftracker.coppersurfer.tk%3A6969","udp%3A%2F%2Fexodus.desync.com%3A6969"],"infoHash":"cf523564d54114a65da882f60fe037f2836d8295","infoHashBuffer":{"type":"Buffer","data":[207,82,53,100,213,65,20,166,93,168,130,246,15,224,55,242,131,109,130,149]},"announce":[],"urlList":[]}}